<?xml version="1.0" standalone="no"?>
<!DOCTYPE svg PUBLIC "-//W3C//DTD SVG 20010904//EN"
 "http://www.w3.org/TR/2001/REC-SVG-20010904/DTD/svg10.dtd">
<svg version="1.0" xmlns="http://www.w3.org/2000/svg"
 width="260.000000pt" height="333.000000pt" viewBox="0 0 260.000000 333.000000"
 preserveAspectRatio="xMidYMid meet">

<g transform="translate(0.000000,333.000000) scale(0.100000,-0.100000)"
fill="#000000" stroke="none">
<path d="M264 3313 c2 -10 7 -92 11 -183 4 -91 8 -183 10 -205 2 -22 6 -101
10 -175 3 -74 10 -209 15 -300 5 -91 12 -232 16 -315 3 -82 8 -161 9 -175 2
-14 3 -56 4 -93 l1 -68 173 6 c157 6 170 5 153 -9 -11 -9 -27 -16 -36 -16 -33
0 -138 -42 -285 -114 -82 -40 -194 -90 -247 -111 l-98 -38 0 -759 0 -758 811
0 811 0 -6 68 c-3 37 -8 119 -11 182 -13 261 -53 509 -100 631 -14 34 -25 77
-25 94 0 17 -4 35 -10 41 -6 6 -4 25 6 53 32 93 43 99 91 49 34 -36 31 -18 53
-298 27 -351 30 -415 30 -589 0 -102 3 -196 6 -209 l6 -22 469 0 469 0 0 639
c0 543 -2 644 -15 668 -8 15 -28 58 -45 95 -28 62 -34 68 -78 83 -26 9 -64 24
-84 32 l-37 16 45 53 c53 61 113 94 173 94 l42 0 -3 360 -3 360 -27 25 c-14
13 -29 34 -33 46 -5 15 -10 18 -18 10 -29 -29 -87 5 -87 52 0 14 -4 16 -19 7
-24 -12 -66 1 -75 25 -11 28 -7 62 9 75 26 21 17 33 -19 27 -69 -11 -86 66
-29 133 22 27 23 31 10 57 -8 15 -12 33 -10 40 2 7 -7 15 -22 19 -32 8 -55
-11 -80 -66 -10 -22 -22 -40 -26 -40 -5 0 -13 -9 -19 -19 -8 -15 -4 -31 14
-68 14 -26 27 -60 31 -74 10 -42 -14 -111 -51 -147 -32 -31 -34 -37 -30 -82 4
-44 2 -48 -19 -52 -13 -3 -29 -2 -36 2 -8 5 -20 -8 -35 -37 l-24 -45 21 -29
c26 -36 53 -34 57 3 5 45 33 57 122 51 95 -7 130 0 130 27 0 10 9 22 21 25 28
9 69 -30 69 -65 0 -22 -6 -29 -30 -33 l-29 -6 14 -35 c19 -46 19 -122 0 -177
-15 -42 -34 -61 -65 -66 -8 -1 -43 -7 -77 -13 -74 -13 -146 1 -168 33 -8 12
-29 26 -47 31 -26 9 -34 20 -48 61 -18 54 -22 50 -35 -32 -4 -24 -10 -45 -15
-48 -4 -2 -5 -15 -3 -29 3 -16 -2 -31 -16 -45 -12 -12 -21 -29 -20 -38 0 -16
2 -15 10 2 22 46 -2 -68 -26 -120 -13 -31 -24 -58 -24 -61 0 -9 -34 -39 -45
-39 -6 0 -11 -9 -11 -20 -1 -11 -7 -19 -14 -17 -7 1 -10 -2 -7 -7 11 -16 -11
-22 -24 -6 -7 8 -9 15 -4 15 4 0 3 5 -4 12 -7 7 -8 17 -1 30 8 14 6 18 -8 18
-10 0 -31 7 -46 15 -28 14 -57 11 -57 -7 0 -5 -4 -7 -9 -4 -5 4 -21 2 -35 -4
-17 -6 -35 -6 -51 0 -14 5 -25 6 -25 1 0 -12 -33 -9 -55 5 -11 8 -29 14 -41
14 -11 0 -34 12 -49 26 -22 20 -35 25 -57 20 -21 -4 -27 -2 -22 7 5 7 2 7 -9
-2 -15 -12 -20 -12 -33 5 -15 19 -15 19 -10 0 5 -15 4 -17 -8 -7 -7 6 -22 9
-32 5 -18 -5 -18 -5 -1 6 21 14 22 30 2 30 -8 0 -15 -6 -15 -12 0 -7 -6 -2
-13 12 -8 15 -9 28 -4 31 5 4 3 9 -4 12 -12 5 -11 7 1 16 12 8 11 13 -9 30
-19 17 -21 21 -8 21 10 0 17 -6 17 -12 0 -9 3 -9 9 1 6 10 4 25 -5 43 -17 33
-29 37 -21 8 3 -11 1 -18 -4 -14 -5 3 -9 12 -9 20 0 9 -5 12 -12 8 -7 -4 -10
-4 -6 1 4 4 3 16 -2 25 -8 15 -6 18 14 16 28 -4 26 12 -10 60 -17 23 -30 31
-49 29 -16 -2 -23 1 -18 8 4 6 0 8 -10 4 -12 -5 -17 -1 -17 13 0 11 -6 20 -12
20 -10 0 -10 2 0 9 11 7 11 11 -2 24 -19 19 -21 31 -3 21 9 -5 9 -4 -1 7 -7 7
-22 14 -35 14 -14 0 -23 7 -25 20 -9 58 -13 69 -23 54 -7 -11 -9 -9 -9 8 0 12
6 24 13 26 7 4 8 6 1 6 -8 1 -8 12 2 39 7 20 13 46 13 57 0 19 0 19 -13 2 -12
-16 -14 -16 -14 7 1 17 5 23 14 19 9 -3 14 2 14 15 0 11 6 22 13 25 6 2 9 8 5
12 -10 10 -40 -14 -32 -26 3 -5 1 -9 -5 -9 -10 0 -5 75 6 93 3 6 1 7 -5 3 -16
-10 -15 7 1 23 10 10 8 11 -7 5 -16 -6 -18 -4 -14 14 4 12 2 24 -2 27 -11 7
-1 43 22 80 10 17 18 35 18 40 -1 6 -8 -2 -16 -17 -8 -16 -17 -28 -19 -28 -8
0 28 72 64 130 19 30 27 49 18 41 -11 -8 -17 -9 -17 -3 0 6 9 16 20 22 11 6
25 20 31 33 11 20 11 21 -5 8 -9 -8 -19 -11 -22 -8 -3 3 8 13 25 22 18 9 29
21 25 26 -4 7 1 9 12 7 11 -2 25 3 32 12 11 13 12 13 6 0 -6 -12 -4 -13 7 -2
7 6 22 12 33 12 31 0 106 40 106 56 0 9 5 12 13 8 6 -4 9 -4 5 1 -4 4 0 14 10
21 12 10 6 10 -23 -1 -36 -14 -38 -14 -21 0 11 8 24 15 29 15 5 0 -1 9 -15 19
-16 13 -33 18 -48 14 -18 -5 -21 -3 -16 8 5 10 4 10 -6 -1 -7 -8 -26 -24 -42
-34 -19 -12 -25 -21 -17 -26 8 -5 4 -12 -13 -24 -14 -9 -26 -12 -26 -6 0 22
-24 7 -90 -60 -70 -69 -99 -78 -37 -10 l32 35 -37 -34 c-33 -30 -61 -80 -36
-65 6 4 8 -2 4 -17 -3 -13 -3 -18 0 -11 3 6 11 12 17 12 7 -1 -1 -12 -18 -26
-16 -15 -24 -23 -17 -20 15 9 15 5 0 -31 -6 -15 -12 -32 -14 -38 -1 -5 -9 -30
-18 -54 -9 -24 -14 -53 -10 -63 3 -10 0 -18 -6 -18 -6 0 -10 -6 -9 -12 3 -29
-3 -41 -10 -18 -4 14 0 57 11 100 9 41 17 90 18 108 0 49 45 136 98 191 53 54
201 160 233 166 12 2 26 8 33 13 6 5 29 9 51 8 22 -1 58 2 80 7 39 8 79 15
100 16 7 1 9 16 7 36 l-4 35 -590 0 c-556 0 -589 -1 -584 -17z m865 -249 c-18
-19 -35 -30 -37 -25 -2 5 -11 8 -20 5 -9 -3 -1 3 18 13 19 10 41 26 49 36 7
10 16 16 19 12 3 -3 -10 -21 -29 -41z m-187 -206 c-7 -7 -12 -8 -12 -2 0 14
12 26 19 19 2 -3 -1 -11 -7 -17z m-82 -142 c0 -3 -4 -8 -10 -11 -5 -3 -10 -1
-10 4 0 6 5 11 10 11 6 0 10 -2 10 -4z m-70 -141 c7 -8 9 -22 6 -31 -6 -15 -8
-15 -26 1 -11 10 -26 15 -35 12 -17 -7 -18 -5 -9 17 8 20 48 21 64 1z m-53
-112 c-3 -10 -5 -4 -5 12 0 17 2 24 5 18 2 -7 2 -21 0 -30z m128 -143 c0 -16
-3 -30 -7 -30 -10 0 -10 44 -1 53 3 4 7 7 7 7 1 0 1 -13 1 -30z m-52 -27 c3
-5 1 -17 -4 -28 -4 -11 -8 -15 -8 -8 -1 6 -4 18 -7 27 -6 16 11 23 19 9z m55
-44 c-3 -8 -7 -3 -11 10 -4 17 -3 21 5 13 5 -5 8 -16 6 -23z m-59 -84 c0 -11
-7 0 -15 25 -7 25 -13 50 -13 55 1 18 27 -59 28 -80z m101 75 c0 -5 -5 -10
-11 -10 -5 0 -7 5 -4 10 3 6 8 10 11 10 2 0 4 -4 4 -10z m-40 -207 l-5 -88 -3
74 c-3 65 1 101 10 101 2 0 1 -39 -2 -87z m165 -53 c-5 -8 -11 -8 -17 -2 -6 6
-7 16 -3 22 5 8 11 8 17 2 6 -6 7 -16 3 -22z m-145 -150 c10 -30 30 -76 44
-101 14 -25 28 -63 30 -85 2 -21 2 -33 -1 -26 -10 24 -22 1 -16 -31 6 -28 4
-30 -9 -20 -8 7 -19 9 -23 5 -5 -4 -5 1 -2 10 4 10 2 17 -4 15 -32 -6 -73 229
-54 299 7 24 9 26 12 9 3 -11 13 -45 23 -75z m257 -22 c2 -18 0 -20 -7 -8 -8
12 -10 12 -10 1 0 -11 -3 -11 -16 0 -14 12 -14 14 3 20 27 11 29 11 30 -13z
m348 -129 c33 -4 69 -6 80 -4 11 3 14 2 7 -1 -6 -3 -10 -9 -8 -12 2 -4 -9 -7
-25 -8 -15 -1 -26 3 -23 8 3 5 -12 7 -37 5 -42 -4 -89 10 -89 27 0 4 8 5 18 1
9 -4 44 -12 77 -16z m693 -2 c15 -12 15 -38 0 -72 -14 -31 -49 -33 -139 -6
-35 10 -77 22 -94 25 -63 14 -134 48 -128 62 4 11 35 13 176 7 95 -3 178 -10
185 -16z m-538 -12 c0 -8 -7 -15 -15 -15 -8 0 -15 -5 -15 -12 0 -9 -3 -9 -12
1 -11 10 -9 15 6 27 25 18 36 18 36 -1z m34 -19 c-3 -7 -11 -13 -18 -13 -11 0
-12 4 -3 18 12 20 29 16 21 -5z m-391 -39 c11 10 222 3 225 -7 2 -6 8 -10 13
-10 6 0 8 4 5 8 -3 5 9 9 27 10 18 1 42 4 55 6 12 3 20 1 17 -3 -2 -5 5 -11
16 -14 20 -5 20 -7 6 -27 -17 -24 -83 -69 -71 -48 4 8 -1 6 -12 -3 -22 -18
-68 -16 -92 3 -13 11 -15 11 -9 -4 4 -12 2 -15 -9 -11 -7 3 -14 13 -14 22 -1
14 -2 14 -11 -2 -9 -15 -13 -16 -27 -5 -9 7 -13 8 -9 2 3 -6 -1 -11 -9 -11 -8
0 -13 5 -11 12 3 6 -3 11 -12 12 -45 4 -89 28 -99 56 -9 23 -8 26 2 18 7 -6
16 -8 19 -4z m333 -245 c-11 -72 -14 -139 -10 -207 l6 -100 -35 70 c-23 47
-51 86 -87 118 -55 49 -57 50 -105 47 -27 -1 -25 2 22 27 31 17 74 53 106 91
29 35 66 72 82 82 30 20 30 20 33 0 2 -12 -4 -69 -12 -128z m-541 38 c79 -54
138 -74 217 -75 43 -1 81 -4 84 -8 4 -4 3 -7 -2 -7 -5 0 -49 -38 -97 -85 l-88
-84 46 -56 c25 -31 45 -62 45 -70 0 -8 -11 -44 -24 -82 -14 -37 -30 -111 -36
-163 -6 -52 -18 -122 -27 -155 -17 -65 -19 -143 -8 -305 4 -58 4 -102 1 -99
-3 3 -27 131 -51 285 -81 501 -95 577 -135 730 -21 83 -36 161 -33 172 7 29
66 30 108 2z m319 -149 c3 -4 -3 -19 -14 -31 -24 -28 -26 -37 -3 -19 15 12 16
12 10 -5 -6 -14 -4 -17 9 -12 14 5 15 4 4 -8 -11 -14 -14 -14 -27 -1 -8 8 -19
15 -25 15 -6 0 -4 8 5 18 10 10 14 21 11 25 -7 7 4 27 16 27 5 0 11 -4 14 -9z
m10 -103 c-5 -8 -2 -9 11 -4 18 6 18 6 -1 -15 l-19 -22 25 13 c21 10 23 10 13
-1 -7 -7 -13 -17 -13 -22 0 -4 6 -5 13 -1 8 5 8 2 -2 -9 -7 -9 -9 -17 -4 -17
5 0 10 -7 10 -15 0 -29 -25 -15 -31 18 -14 72 -14 87 0 87 3 0 2 -5 -2 -12z
m13 -154 c-9 -17 -17 -23 -21 -15 -4 6 -2 11 5 11 7 0 9 3 6 7 -4 3 -2 12 5
20 17 21 21 7 5 -23z m-16 -52 c-9 -3 -9 -7 0 -18 8 -10 8 -14 1 -14 -7 0 -9
-8 -5 -17 3 -10 3 -15 -2 -11 -4 4 -9 26 -11 49 -3 36 -1 39 13 28 10 -9 11
-15 4 -17z m-10 -79 c13 -16 12 -17 -3 -4 -17 13 -22 21 -14 21 2 0 10 -8 17
-17z m5 -57 c-1 -16 -6 -22 -16 -18 -13 5 -13 3 -1 -11 7 -9 9 -17 4 -17 -5 0
-20 15 -33 33 -12 17 -17 26 -9 20 21 -20 31 -15 18 8 -9 17 -8 20 2 14 9 -6
10 -3 5 10 -7 18 -6 18 12 1 11 -9 19 -28 18 -40z m-27 -67 c-6 -4 -9 -12 -5
-18 4 -6 2 -9 -6 -6 -7 3 -19 15 -27 27 -11 18 -11 20 3 15 14 -6 14 -3 -1 21
l-17 27 32 -29 c21 -19 28 -32 21 -37z m-7 -53 c7 -13 7 -16 -1 -12 -6 4 -11
3 -11 -3 0 -5 5 -13 10 -16 6 -3 10 -11 10 -16 0 -6 -18 11 -40 36 -41 47 -49
62 -28 49 8 -5 9 -2 4 12 -6 15 -2 14 19 -6 15 -14 31 -33 37 -44z m-47 -13
c19 -21 30 -40 27 -43 -4 -3 -7 -14 -7 -25 0 -14 -6 -19 -18 -17 -18 3 -18 2
0 -25 17 -26 17 -27 0 -14 -10 8 -32 32 -49 54 -25 31 -27 37 -10 26 12 -8 22
-17 22 -21 0 -5 5 -8 12 -8 6 0 2 10 -9 23 -28 31 -40 52 -23 42 10 -6 12 -4
7 9 -5 11 -3 15 5 10 8 -5 9 -2 5 9 -10 27 2 20 38 -20z m-5 -151 c-7 -3 -5
-13 6 -30 16 -25 16 -26 1 -13 -20 16 -23 2 -5 -20 7 -7 -9 6 -36 31 -41 37
-45 39 -22 11 15 -18 24 -36 21 -39 -3 -3 -12 3 -20 14 -8 10 -15 14 -15 8 0
-17 37 -47 42 -34 2 8 9 6 18 -6 14 -16 13 -17 -2 -11 -10 3 -18 2 -18 -3 0
-6 5 -10 12 -10 6 0 8 -3 5 -7 -4 -3 -22 7 -40 23 -17 16 -26 22 -19 14 14
-17 16 -34 2 -25 -5 3 -10 2 -10 -4 0 -5 4 -12 10 -16 5 -3 19 -20 32 -38 18
-26 19 -29 3 -17 -17 14 -18 13 -12 -3 4 -10 2 -27 -4 -38 -8 -15 -7 -25 3
-37 9 -13 7 -12 -10 2 -26 23 -28 16 -6 -22 15 -24 15 -25 0 -8 -9 11 -18 17
-21 14 -3 -3 7 -21 22 -39 l27 -34 -27 24 c-15 14 -27 19 -27 13 0 -6 4 -13
10 -17 5 -3 19 -20 31 -38 l22 -32 -39 35 c-21 19 -31 26 -23 15 9 -11 20 -27
24 -35 8 -13 7 -13 -8 -1 -22 17 -22 8 0 -27 17 -26 17 -26 0 -13 -12 9 -17
10 -17 2 0 -7 -5 -9 -12 -5 -9 6 -9 9 0 12 8 2 9 9 2 23 -8 13 -7 19 0 19 7 0
8 6 1 17 -5 9 -6 26 -2 37 3 12 6 33 5 49 0 15 3 27 8 27 5 0 6 6 1 13 -9 14
-12 57 -3 57 3 0 5 29 4 65 0 36 4 65 8 65 5 0 6 5 3 11 -11 17 -13 59 -3 59
5 0 6 5 3 10 -9 14 9 12 24 -2 10 -11 11 -10 6 5 -4 9 -11 17 -16 17 -5 0 -9
6 -9 13 1 6 19 -8 41 -33 22 -24 36 -46 29 -48z m-14 -149 c-6 -6 -46 30 -46
41 0 5 11 -1 25 -14 14 -13 23 -25 21 -27z m-78 -308 c-3 -3 -9 2 -12 12 -6
14 -5 15 5 6 7 -7 10 -15 7 -18z m6 -30 c3 -8 1 -15 -4 -15 -6 0 -10 7 -10 15
0 8 2 15 4 15 2 0 6 -7 10 -15z"/>
<path d="M1105 1050 c-3 -5 -1 -10 4 -10 6 0 11 5 11 10 0 6 -2 10 -4 10 -3 0
-8 -4 -11 -10z"/>
<path d="M1380 1239 c0 -5 5 -7 10 -4 6 3 10 8 10 11 0 2 -4 4 -10 4 -5 0 -10
-5 -10 -11z"/>
<path d="M1335 700 c10 -11 20 -20 23 -20 3 0 -3 9 -13 20 -10 11 -20 20 -23
20 -3 0 3 -9 13 -20z"/>
<path d="M1310 655 c13 -14 25 -23 28 -21 4 5 -35 46 -45 46 -3 0 4 -11 17
-25z"/>
<path d="M1306 629 c16 -20 31 -34 33 -32 3 2 -10 18 -29 36 l-34 32 30 -36z"/>
<path d="M1250 554 c0 -6 15 -23 32 -40 l33 -29 -25 30 c-14 17 -28 34 -32 40
-5 5 -8 5 -8 -1z"/>
<path d="M1280 546 c0 -2 7 -9 15 -16 9 -7 15 -8 15 -2 0 5 -7 12 -15 16 -8 3
-15 4 -15 2z"/>
<path d="M1245 362 c0 -15 -3 -30 -8 -33 -4 -3 -1 -12 8 -19 13 -11 14 -10 9
5 -5 13 -4 16 4 11 7 -4 12 -3 12 3 0 5 -5 13 -11 17 -8 5 -8 8 0 14 9 5 8 10
-1 18 -11 9 -14 6 -13 -16z"/>
<path d="M1641 3283 c-23 -27 -41 -51 -41 -54 0 -4 28 -17 63 -29 71 -26 128
-63 172 -111 17 -18 21 -27 11 -19 -10 8 -31 15 -46 16 -25 1 -22 -4 42 -69
38 -38 71 -67 74 -64 3 3 -4 15 -15 26 -25 25 -12 27 29 6 25 -13 30 -13 30
-1 0 7 7 17 16 20 8 3 13 10 10 14 -3 5 1 28 8 53 10 32 11 51 3 69 -5 14 -9
34 -8 45 1 19 0 18 -19 -4 -11 -13 -20 -34 -20 -47 0 -27 -12 -37 -34 -28 -12
5 -14 19 -12 70 2 36 -1 67 -6 71 -24 14 -87 5 -118 -17 -24 -17 -34 -20 -43
-10 -16 16 50 74 107 94 l41 14 -102 1 -101 1 -41 -47z"/>
<path d="M2352 3302 c1 -16 -7 -42 -18 -58 -12 -16 -24 -37 -27 -48 -5 -13
-13 -17 -30 -12 -12 3 -31 9 -42 12 -15 4 -25 -2 -35 -20 -12 -24 -11 -27 13
-47 37 -28 34 -54 -10 -84 -39 -26 -68 -31 -92 -16 -19 12 -6 41 19 41 11 0
20 4 20 8 0 10 -44 32 -63 32 -11 0 -84 -125 -80 -138 0 -4 -3 -15 -8 -25 -7
-13 -5 -25 9 -45 10 -15 19 -45 21 -67 1 -21 4 -41 6 -44 9 -8 77 52 88 78 6
14 22 37 37 51 14 14 39 43 55 65 17 22 38 49 48 60 10 11 34 43 53 72 19 28
42 54 50 57 8 3 13 10 9 15 -3 6 1 13 8 18 8 4 22 27 32 51 14 32 24 42 39 40
12 -2 22 2 24 7 4 13 -31 23 -86 24 -40 1 -42 0 -40 -27z"/>
<path d="M1220 3200 c-8 -5 -10 -10 -5 -10 6 0 17 5 25 10 8 5 11 10 5 10 -5
0 -17 -5 -25 -10z"/>
<path d="M2480 3183 c-40 -12 -40 -12 -29 -37 12 -26 55 -51 64 -36 9 14 2 69
-10 73 -5 2 -17 2 -25 0z"/>
<path d="M1270 3150 c-9 -6 -10 -10 -3 -10 6 0 15 5 18 10 8 12 4 12 -15 0z"/>
<path d="M1065 3100 c-3 -5 -2 -10 4 -10 5 0 13 5 16 10 3 6 2 10 -4 10 -5 0
-13 -4 -16 -10z"/>
<path d="M1956 2795 c4 -8 11 -15 16 -15 6 0 5 6 -2 15 -7 8 -14 15 -16 15 -2
0 -1 -7 2 -15z"/>
<path d="M1335 2439 c6 -9 -10 -14 -30 -9 -26 6 -91 -2 -101 -13 -4 -4 -18 -7
-31 -7 -12 0 -23 -4 -23 -9 0 -4 -19 -8 -41 -7 -45 2 -74 -17 -64 -41 4 -11 1
-13 -12 -9 -16 6 -16 5 -3 -7 22 -21 134 -82 126 -69 -11 19 31 23 69 7 48
-19 50 -19 74 6 18 20 20 20 45 4 14 -9 31 -13 37 -9 8 4 9 3 5 -5 -6 -8 0
-10 18 -5 25 6 26 5 22 -30 -3 -27 -1 -36 10 -36 8 0 14 -10 14 -26 l0 -27 22
28 c24 31 34 115 17 147 -6 11 -6 18 0 18 5 0 11 7 15 15 3 8 2 14 -2 13 -15
-3 -42 15 -42 29 0 7 -6 13 -14 11 -8 -2 -21 4 -28 13 -14 18 -93 35 -83 18z
m-60 -19 c-3 -5 -12 -10 -18 -10 -7 0 -6 4 3 10 19 12 23 12 15 0z m63 -80 c8
0 12 -3 9 -7 -4 -3 1 -15 10 -27 17 -19 16 -19 -18 2 -19 12 -46 26 -60 32
-22 10 -21 10 10 5 18 -3 40 -5 49 -5z"/>
<path d="M2020 2386 c-6 -8 -10 -25 -8 -36 2 -17 5 -14 14 14 12 40 12 42 -6
22z"/>
<path d="M1680 2368 c0 -5 -7 -8 -15 -4 -8 3 -15 2 -15 -3 0 -4 -11 -6 -24 -4
-19 4 -24 1 -23 -14 1 -10 -3 -17 -8 -16 -6 1 -11 -6 -11 -15 -1 -9 -4 -30 -8
-47 -4 -16 -4 -25 1 -19 4 6 21 14 38 17 26 4 28 4 12 -8 -17 -12 -16 -13 5
-13 22 0 51 -5 88 -17 12 -4 25 3 39 21 17 21 22 23 27 11 3 -8 18 -20 33 -27
32 -13 78 0 87 25 8 19 -14 47 -29 38 -6 -3 -7 -1 -3 5 4 7 2 12 -4 12 -6 0
-8 5 -5 10 3 6 -3 11 -14 11 -37 2 -42 4 -49 15 -15 23 -122 43 -122 22z m129
-84 c9 -9 -53 7 -63 17 -5 5 5 4 24 -1 18 -5 35 -12 39 -16z"/>
<path d="M1185 2250 c3 -5 11 -10 16 -10 6 0 7 5 4 10 -3 6 -11 10 -16 10 -6
0 -7 -4 -4 -10z"/>
<path d="M1560 2219 c0 -5 5 -7 10 -4 6 3 10 8 10 11 0 2 -4 4 -10 4 -5 0 -10
-5 -10 -11z"/>
<path d="M1655 2210 c-19 -7 -19 -7 3 -14 27 -9 34 -5 24 10 -4 7 -16 8 -27 4z"/>
<path d="M1358 2009 c-39 -60 -31 -112 27 -166 25 -24 54 -43 66 -43 14 0 19
-5 16 -14 -3 -8 2 -21 12 -30 22 -20 35 -21 28 -1 -4 8 -2 17 4 20 5 4 7 10 4
14 -6 10 21 34 62 55 18 9 38 26 44 38 l12 21 -38 -22 c-26 -15 -41 -19 -49
-12 -7 6 -21 12 -32 14 -10 1 -34 10 -53 20 -19 9 -42 17 -53 17 -30 0 -43 42
-24 76 8 16 15 24 16 18 0 -7 6 -14 13 -17 10 -4 13 2 9 18 -7 40 -36 37 -64
-6z"/>
<path d="M1611 2000 c0 -8 9 -31 20 -50 15 -26 18 -29 13 -10 -9 35 -33 78
-33 60z"/>
<path d="M2568 1574 c-35 -18 -39 -49 -5 -39 30 10 40 20 35 38 -3 14 -6 14
-30 1z"/>
</g>
</svg>
